<svg xmlns="http://www.w3.org/2000/svg" width="16" height="16" viewBox="0 0 16 16" fill="none">
    <path d="M15.5 8C15.5 12.1421 12.1421 15.5 8 15.5C3.85786 15.5 0.5 12.1421 0.5 8C0.5 3.85786 3.85786 0.5 8 0.5C12.1421 0.5 15.5 3.85786 15.5 8Z" fill="#CFD4E5" stroke="#CFD4E5"/>
    <mask id="mask0_4543_30481" style="mask-type:alpha" maskUnits="userSpaceOnUse" x="0" y="0" width="16" height="16">
        <path d="M15.5 8C15.5 12.1421 12.1421 15.5 8 15.5C3.85786 15.5 0.5 12.1421 0.5 8C0.5 3.85786 3.85786 0.5 8 0.5C12.1421 0.5 15.5 3.85786 15.5 8Z" fill="#CFD4E5" stroke="#CFD4E5"/>
    </mask>
    <g mask="url(#mask0_4543_30481)">
        <path d="M15 17C15 15.1435 14.2625 13.363 12.9497 12.0503C11.637 10.7375 9.85652 10 8 10C6.14349 10 4.36301 10.7375 3.05025 12.0503C1.7375 13.363 1 15.1435 1 17L8 17H15Z" fill="white"/>
    </g>
    <circle cx="8" cy="6" r="3" fill="white"/>
    <path d="M15.5 8C15.5 12.1421 12.1421 15.5 8 15.5C3.85786 15.5 0.5 12.1421 0.5 8C0.5 3.85786 3.85786 0.5 8 0.5C12.1421 0.5 15.5 3.85786 15.5 8Z" stroke="#CFD4E5"/>
</svg>