<svg width="16" height="17" viewBox="0 0 16 17" fill="none" xmlns="http://www.w3.org/2000/svg">
<path d="M8.37891 1.17651C12.2534 1.37304 15.3348 4.57646 15.335 8.49976L15.3252 8.87769C15.1287 12.7523 11.9244 15.8337 8.00098 15.8337L7.62402 15.824C3.87434 15.634 0.867927 12.6273 0.677734 8.87769L0.667969 8.49976C0.668145 4.44993 3.95115 1.16692 8.00098 1.16675L8.37891 1.17651ZM8.00098 2.16675C4.50343 2.16692 1.66814 5.00221 1.66797 8.49976C1.66797 11.9975 4.50332 14.8336 8.00098 14.8337C11.4988 14.8337 14.335 11.9976 14.335 8.49976C14.3348 5.0021 11.4987 2.16675 8.00098 2.16675ZM9.7041 10.3035C9.9401 10.1404 10.271 10.1496 10.458 10.3669C10.6292 10.5664 10.617 10.8686 10.4072 11.0271C9.73779 11.5329 8.90464 11.8337 8.00098 11.8337C7.09705 11.8336 6.26422 11.5322 5.59473 11.0261C5.38537 10.8679 5.37225 10.5672 5.54297 10.3679C5.72975 10.15 6.06072 10.1404 6.29688 10.3035C6.78084 10.6378 7.3683 10.8337 8.00098 10.8337C8.63338 10.8337 9.22035 10.6377 9.7041 10.3035ZM5.83496 6.16675C6.295 6.16684 6.66777 6.53974 6.66797 6.99976C6.66797 7.45994 6.29512 7.83365 5.83496 7.83374C5.37472 7.83374 5.00195 7.45999 5.00195 6.99976C5.00215 6.53969 5.37485 6.16675 5.83496 6.16675ZM10.168 6.16675C10.6281 6.16675 11.0008 6.53969 11.001 6.99976C11.001 7.45999 10.6282 7.83374 10.168 7.83374C9.70781 7.83365 9.33496 7.45994 9.33496 6.99976C9.33516 6.53974 9.70793 6.16684 10.168 6.16675Z" fill="#C5CCDB"/>
</svg>
