<svg width="129" height="128" viewBox="0 0 129 128" fill="none" xmlns="http://www.w3.org/2000/svg">
<g clip-path="url(#clip0_861_359071)">
<g filter="url(#filter0_f_861_359071)">
<ellipse cx="64.5" cy="73" rx="24" ry="26" fill="#FFC6A3"/>
</g>
<path d="M38.7247 34.7933C31.6932 30.8867 23.2307 36.3556 24.6593 44.1683C26.2306 52.7617 38.7212 53.5432 44.1905 63.6995" stroke="url(#paint0_linear_861_359071)" stroke-width="6.25"/>
<path d="M90.9003 34.7933C97.9318 30.8867 106.394 36.3556 104.966 44.1683C103.394 52.7617 90.9038 53.5432 85.4345 63.6995" stroke="url(#paint1_linear_861_359071)" stroke-width="6.25"/>
<path d="M38.7247 33.2308C31.6932 29.3242 23.2307 34.7931 24.6593 42.6058C26.2306 51.1992 38.7212 51.9807 44.1905 62.137" stroke="url(#paint2_linear_861_359071)" stroke-width="6.25"/>
<path d="M90.9003 33.2308C97.9318 29.3242 106.394 34.7931 104.966 42.6058C103.394 51.1992 90.9038 51.9807 85.4345 62.137" stroke="url(#paint3_linear_861_359071)" stroke-width="6.25"/>
<rect x="62" y="78.8125" width="6.25" height="4.6875" fill="url(#paint4_linear_861_359071)"/>
<path d="M62 83.5H68.25L71.375 86.625L68.25 89.75H62L58.875 86.625L62 83.5Z" fill="url(#paint5_linear_861_359071)"/>
<path d="M68.25 83.5H62L58.875 86.625H71.375L68.25 83.5Z" fill="url(#paint6_linear_861_359071)"/>
<path d="M66.6875 86.625L65.125 83.5H66.6875L68.25 86.625H66.6875Z" fill="white"/>
<g filter="url(#filter1_di_861_359071)">
<path d="M35.9651 25.4187C35.7165 23.057 37.5683 21 39.9432 21H90.4318C92.8066 21 94.6585 23.057 94.4099 25.4187L91.0786 57.0663C89.6838 70.3162 78.5107 80.375 65.1875 80.375C51.8643 80.375 40.6912 70.3162 39.2965 57.0663L35.9651 25.4187Z" fill="url(#paint7_linear_861_359071)"/>
<path d="M39.9434 23H90.4316C91.6189 23 92.545 24.0283 92.4209 25.209L89.0898 56.8564C87.8023 69.0885 77.4872 78.375 65.1875 78.375C52.8878 78.375 42.5727 69.0885 41.2852 56.8564L37.9541 25.209C37.83 24.0283 38.7561 23 39.9434 23Z" stroke="url(#paint8_linear_861_359071)" stroke-width="4"/>
</g>
<path d="M62 89.75H68.25L80.75 94.4375H49.5L62 89.75Z" fill="url(#paint9_linear_861_359071)"/>
<rect x="49.5" y="94.4375" width="31.25" height="3.125" fill="url(#paint10_linear_861_359071)"/>
<path d="M45.2825 98.5118C45.5281 97.9361 46.0937 97.5625 46.7196 97.5625H83.5304C84.1563 97.5625 84.7219 97.9361 84.9675 98.5118L87.8949 105.373C88.254 106.215 87.8142 107.172 86.9293 107.406C83.682 108.264 75.8087 110 65.268 110C54.6984 110 46.6479 108.254 43.3372 107.399C42.4457 107.169 41.9998 106.206 42.3611 105.359L45.2825 98.5118Z" fill="url(#paint11_linear_861_359071)"/>
<rect x="51.125" y="99.625" width="28" height="5" rx="1.5625" fill="url(#paint12_linear_861_359071)"/>
<path d="M76.325 104.625L73.125 99.625H73.925L77.125 104.625H76.325Z" fill="white"/>
<path d="M71.9821 104.625L69.125 99.625H71.2679L74.125 104.625H71.9821Z" fill="white"/>
<g filter="url(#filter2_f_861_359071)">
<rect x="68.5" y="28" width="7" height="36" fill="#FF6200"/>
</g>
<g filter="url(#filter3_d_861_359071)">
<path d="M65.4985 32.4004C66.0669 32.4004 66.5924 32.7017 66.8794 33.1924L70.518 39.415L77.8042 40.833L78.0141 40.8887C78.4903 41.0507 78.8675 41.4298 79.0229 41.917C79.2005 42.4742 79.0603 43.0846 78.6567 43.5078L73.6567 48.749L74.5034 55.8096C74.5718 56.3803 74.3286 56.9441 73.8667 57.2861C73.4047 57.628 72.7948 57.6958 72.269 57.4639L65.4985 54.4766L58.728 57.4639C58.2022 57.6958 57.5923 57.628 57.1303 57.2861C56.6684 56.9441 56.4252 56.3803 56.4936 55.8096L57.3393 48.749L52.3403 43.5078C51.9367 43.0846 51.7965 42.4742 51.9741 41.917C52.1517 41.3601 52.6191 40.9447 53.1928 40.833L60.478 39.415L64.1176 33.1924L64.2358 33.0176C64.5364 32.6311 65.0011 32.4004 65.4985 32.4004ZM62.8745 41.6562C62.6713 42.0036 62.3459 42.2595 61.9653 42.377L61.7993 42.4189L56.6753 43.415L60.1762 47.0859C60.5059 47.4315 60.6637 47.9067 60.6069 48.3809L60.0044 53.4023L64.853 51.2646L65.0092 51.2051C65.3802 51.0859 65.784 51.1059 66.144 51.2646L70.9917 53.4023L70.3901 48.3809C70.3333 47.9067 70.4911 47.4315 70.8208 47.0859L74.3208 43.415L69.1977 42.4189C68.8025 42.342 68.453 42.1194 68.2163 41.7988L68.1225 41.6562L65.4985 37.1689L62.8745 41.6562Z" fill="url(#paint13_linear_861_359071)"/>
<path d="M65.4985 32.4004C66.0669 32.4004 66.5924 32.7017 66.8794 33.1924L70.518 39.415L77.8042 40.833L78.0141 40.8887C78.4903 41.0507 78.8675 41.4298 79.0229 41.917C79.2005 42.4742 79.0603 43.0846 78.6567 43.5078L73.6567 48.749L74.5034 55.8096C74.5718 56.3803 74.3286 56.9441 73.8667 57.2861C73.4047 57.628 72.7948 57.6958 72.269 57.4639L65.4985 54.4766L58.728 57.4639C58.2022 57.6958 57.5923 57.628 57.1303 57.2861C56.6684 56.9441 56.4252 56.3803 56.4936 55.8096L57.3393 48.749L52.3403 43.5078C51.9367 43.0846 51.7965 42.4742 51.9741 41.917C52.1517 41.3601 52.6191 40.9447 53.1928 40.833L60.478 39.415L64.1176 33.1924L64.2358 33.0176C64.5364 32.6311 65.0011 32.4004 65.4985 32.4004ZM62.8745 41.6562C62.6713 42.0036 62.3459 42.2595 61.9653 42.377L61.7993 42.4189L56.6753 43.415L60.1762 47.0859C60.5059 47.4315 60.6637 47.9067 60.6069 48.3809L60.0044 53.4023L64.853 51.2646L65.0092 51.2051C65.3802 51.0859 65.784 51.1059 66.144 51.2646L70.9917 53.4023L70.3901 48.3809C70.3333 47.9067 70.4911 47.4315 70.8208 47.0859L74.3208 43.415L69.1977 42.4189C68.8025 42.342 68.453 42.1194 68.2163 41.7988L68.1225 41.6562L65.4985 37.1689L62.8745 41.6562Z" stroke="url(#paint14_linear_861_359071)" stroke-width="0.35" stroke-linejoin="round"/>
</g>
<g filter="url(#filter4_f_861_359071)">
<path d="M28.5 11V4L43.5 17.5L28.5 11Z" fill="#83E2FF"/>
</g>
<path d="M98.0648 16.4839L101.867 10.6707L104.326 12.2363L100.301 15.3662L98.0648 16.4839Z" fill="#FF7474"/>
<path d="M115.643 11C114.373 11 110.767 12.2 106.5 17L122.5 14.4286L115.643 11Z" fill="#FF9940"/>
<path d="M19.809 72.0194C22.6223 72.3117 26.454 73.0652 29.144 77.9657C27.0103 76.6065 22.0621 77.7038 19.8547 78.4224L19.809 72.0194Z" fill="#FF9940"/>
<path d="M8.52779 96.6445C12.7443 95.9568 21.9694 93.5401 25.138 89.3751C23.5361 97.4419 16.342 102.405 12.9452 103.878L8.52779 96.6445Z" fill="#FF7474"/>
<g filter="url(#filter5_d_861_359071)">
<path d="M113.5 78L114.275 80.7621C114.747 82.4411 116.059 83.7532 117.738 84.2246L120.5 85L117.738 85.7754C116.059 86.2468 114.747 87.5589 114.275 89.2379L113.5 92L112.725 89.2379C112.253 87.5589 110.941 86.2468 109.262 85.7754L106.5 85L109.262 84.2246C110.941 83.7532 112.253 82.4411 112.725 80.7621L113.5 78Z" fill="#FFA947"/>
</g>
<path d="M13.5 14C14.0445 15.9397 15.5603 17.4555 17.5 18C15.5603 18.5445 14.0445 20.0603 13.5 22C12.9555 20.0603 11.4397 18.5445 9.5 18C11.4397 17.4555 12.9555 15.9397 13.5 14Z" fill="#FFE083"/>
<g filter="url(#filter6_d_861_359071)">
<path d="M90.5 22L90.756 23.2038C90.9203 23.9763 91.5237 24.5797 92.2962 24.744L93.5 25L92.2962 25.256C91.5237 25.4203 90.9203 26.0237 90.756 26.7962L90.5 28L90.244 26.7962C90.0797 26.0237 89.4763 25.4203 88.7038 25.256L87.5 25L88.7038 24.744C89.4763 24.5797 90.0797 23.9763 90.244 23.2038L90.5 22Z" fill="#FFE091"/>
</g>
</g>
<defs>
<filter id="filter0_f_861_359071" x="-9.5" y="-3" width="148" height="152" filterUnits="userSpaceOnUse" color-interpolation-filters="sRGB">
<feFlood flood-opacity="0" result="BackgroundImageFix"/>
<feBlend mode="normal" in="SourceGraphic" in2="BackgroundImageFix" result="shape"/>
<feGaussianBlur stdDeviation="25" result="effect1_foregroundBlur_861_359071"/>
</filter>
<filter id="filter1_di_861_359071" x="25.9453" y="15" width="78.4844" height="79.375" filterUnits="userSpaceOnUse" color-interpolation-filters="sRGB">
<feFlood flood-opacity="0" result="BackgroundImageFix"/>
<feColorMatrix in="SourceAlpha" type="matrix" values="0 0 0 0 0 0 0 0 0 0 0 0 0 0 0 0 0 0 127 0" result="hardAlpha"/>
<feOffset dy="4"/>
<feGaussianBlur stdDeviation="5"/>
<feComposite in2="hardAlpha" operator="out"/>
<feColorMatrix type="matrix" values="0 0 0 0 1 0 0 0 0 0.806905 0 0 0 0 0.356351 0 0 0 0.1 0"/>
<feBlend mode="normal" in2="BackgroundImageFix" result="effect1_dropShadow_861_359071"/>
<feBlend mode="normal" in="SourceGraphic" in2="effect1_dropShadow_861_359071" result="shape"/>
<feColorMatrix in="SourceAlpha" type="matrix" values="0 0 0 0 0 0 0 0 0 0 0 0 0 0 0 0 0 0 127 0" result="hardAlpha"/>
<feOffset dy="-9"/>
<feGaussianBlur stdDeviation="2"/>
<feComposite in2="hardAlpha" operator="arithmetic" k2="-1" k3="1"/>
<feColorMatrix type="matrix" values="0 0 0 0 1 0 0 0 0 0.711144 0 0 0 0 0.133432 0 0 0 1 0"/>
<feBlend mode="normal" in2="shape" result="effect2_innerShadow_861_359071"/>
</filter>
<filter id="filter2_f_861_359071" x="38.5" y="-2" width="67" height="96" filterUnits="userSpaceOnUse" color-interpolation-filters="sRGB">
<feFlood flood-opacity="0" result="BackgroundImageFix"/>
<feBlend mode="normal" in="SourceGraphic" in2="BackgroundImageFix" result="shape"/>
<feGaussianBlur stdDeviation="15" result="effect1_foregroundBlur_861_359071"/>
</filter>
<filter id="filter3_d_861_359071" x="41.7266" y="24.2253" width="47.5469" height="45.5497" filterUnits="userSpaceOnUse" color-interpolation-filters="sRGB">
<feFlood flood-opacity="0" result="BackgroundImageFix"/>
<feColorMatrix in="SourceAlpha" type="matrix" values="0 0 0 0 0 0 0 0 0 0 0 0 0 0 0 0 0 0 127 0" result="hardAlpha"/>
<feOffset dy="2"/>
<feGaussianBlur stdDeviation="5"/>
<feComposite in2="hardAlpha" operator="out"/>
<feColorMatrix type="matrix" values="0 0 0 0 1 0 0 0 0 0.15 0 0 0 0 0 0 0 0 0.35 0"/>
<feBlend mode="normal" in2="BackgroundImageFix" result="effect1_dropShadow_861_359071"/>
<feBlend mode="normal" in="SourceGraphic" in2="effect1_dropShadow_861_359071" result="shape"/>
</filter>
<filter id="filter4_f_861_359071" x="26.5" y="2" width="19" height="17.5" filterUnits="userSpaceOnUse" color-interpolation-filters="sRGB">
<feFlood flood-opacity="0" result="BackgroundImageFix"/>
<feBlend mode="normal" in="SourceGraphic" in2="BackgroundImageFix" result="shape"/>
<feGaussianBlur stdDeviation="1" result="effect1_foregroundBlur_861_359071"/>
</filter>
<filter id="filter5_d_861_359071" x="102.5" y="78" width="22" height="22" filterUnits="userSpaceOnUse" color-interpolation-filters="sRGB">
<feFlood flood-opacity="0" result="BackgroundImageFix"/>
<feColorMatrix in="SourceAlpha" type="matrix" values="0 0 0 0 0 0 0 0 0 0 0 0 0 0 0 0 0 0 127 0" result="hardAlpha"/>
<feOffset dy="4"/>
<feGaussianBlur stdDeviation="2"/>
<feComposite in2="hardAlpha" operator="out"/>
<feColorMatrix type="matrix" values="0 0 0 0 1 0 0 0 0 0.835243 0 0 0 0 0.505728 0 0 0 0.25 0"/>
<feBlend mode="normal" in2="BackgroundImageFix" result="effect1_dropShadow_861_359071"/>
<feBlend mode="normal" in="SourceGraphic" in2="effect1_dropShadow_861_359071" result="shape"/>
</filter>
<filter id="filter6_d_861_359071" x="83.5" y="18" width="14" height="14" filterUnits="userSpaceOnUse" color-interpolation-filters="sRGB">
<feFlood flood-opacity="0" result="BackgroundImageFix"/>
<feColorMatrix in="SourceAlpha" type="matrix" values="0 0 0 0 0 0 0 0 0 0 0 0 0 0 0 0 0 0 127 0" result="hardAlpha"/>
<feOffset/>
<feGaussianBlur stdDeviation="2"/>
<feComposite in2="hardAlpha" operator="out"/>
<feColorMatrix type="matrix" values="0 0 0 0 0.87038 0 0 0 0 0.442591 0 0 0 0 0.137027 0 0 0 0.25 0"/>
<feBlend mode="normal" in2="BackgroundImageFix" result="effect1_dropShadow_861_359071"/>
<feBlend mode="normal" in="SourceGraphic" in2="effect1_dropShadow_861_359071" result="shape"/>
</filter>
<linearGradient id="paint0_linear_861_359071" x1="33.4501" y1="33.9051" x2="33.4501" y2="63.6997" gradientUnits="userSpaceOnUse">
<stop stop-color="#E9C792"/>
<stop offset="1" stop-color="#FF6A00"/>
</linearGradient>
<linearGradient id="paint1_linear_861_359071" x1="96.1749" y1="33.9051" x2="96.1749" y2="63.6997" gradientUnits="userSpaceOnUse">
<stop stop-color="#E9C792"/>
<stop offset="1" stop-color="#FF6A00"/>
</linearGradient>
<linearGradient id="paint2_linear_861_359071" x1="33.4501" y1="32.3426" x2="33.4501" y2="62.1372" gradientUnits="userSpaceOnUse">
<stop stop-color="#FEE7BC"/>
<stop offset="1" stop-color="#F77B1B"/>
</linearGradient>
<linearGradient id="paint3_linear_861_359071" x1="96.1749" y1="32.3426" x2="96.1749" y2="62.1372" gradientUnits="userSpaceOnUse">
<stop stop-color="#FEE7BC"/>
<stop offset="1" stop-color="#F77B1B"/>
</linearGradient>
<linearGradient id="paint4_linear_861_359071" x1="63.8906" y1="83.015" x2="67.311" y2="78.1101" gradientUnits="userSpaceOnUse">
<stop stop-color="#FF8422"/>
<stop offset="1" stop-color="#E7D5A7"/>
</linearGradient>
<linearGradient id="paint5_linear_861_359071" x1="62.6562" y1="89.1033" x2="66.372" y2="81.1106" gradientUnits="userSpaceOnUse">
<stop stop-color="#FF8422"/>
<stop offset="1" stop-color="#E7D5A7"/>
</linearGradient>
<linearGradient id="paint6_linear_861_359071" x1="70.6739" y1="83.6863" x2="70.1829" y2="87.5028" gradientUnits="userSpaceOnUse">
<stop stop-color="white"/>
<stop offset="1" stop-color="#EFCF86"/>
</linearGradient>
<linearGradient id="paint7_linear_861_359071" x1="65.1875" y1="21" x2="65.1875" y2="80.375" gradientUnits="userSpaceOnUse">
<stop stop-color="#FFB74B"/>
<stop offset="1" stop-color="#FF9E16"/>
</linearGradient>
<linearGradient id="paint8_linear_861_359071" x1="65.1875" y1="21" x2="65.1875" y2="80.375" gradientUnits="userSpaceOnUse">
<stop stop-color="#FF9A3C"/>
<stop offset="1" stop-color="#FFD685"/>
</linearGradient>
<linearGradient id="paint9_linear_861_359071" x1="78.9971" y1="90.0294" x2="78.5506" y2="95.8144" gradientUnits="userSpaceOnUse">
<stop stop-color="white"/>
<stop offset="1" stop-color="#EFCF86"/>
</linearGradient>
<linearGradient id="paint10_linear_861_359071" x1="58.9529" y1="97.2391" x2="59.4009" y2="92.4207" gradientUnits="userSpaceOnUse">
<stop stop-color="#FF8422"/>
<stop offset="1" stop-color="#E7D5A7"/>
</linearGradient>
<linearGradient id="paint11_linear_861_359071" x1="83.0938" y1="97.5625" x2="74.2438" y2="110.1" gradientUnits="userSpaceOnUse">
<stop stop-color="#976C47"/>
<stop offset="1" stop-color="#745536"/>
</linearGradient>
<linearGradient id="paint12_linear_861_359071" x1="75.8583" y1="99.625" x2="71.3393" y2="106.795" gradientUnits="userSpaceOnUse">
<stop stop-color="#E4E7FF"/>
<stop offset="1" stop-color="#D5D6E0"/>
</linearGradient>
<linearGradient id="paint13_linear_861_359071" x1="65.5" y1="36.5" x2="65.4985" y2="57.6" gradientUnits="userSpaceOnUse">
<stop stop-color="#FFF0E3"/>
<stop offset="1" stop-color="#FFE2A5"/>
</linearGradient>
<linearGradient id="paint14_linear_861_359071" x1="65.4985" y1="32.4004" x2="65.4985" y2="57.6" gradientUnits="userSpaceOnUse">
<stop stop-color="#FFF1E5"/>
<stop offset="1" stop-color="#FFF0E1"/>
</linearGradient>
<clipPath id="clip0_861_359071">
<rect width="128" height="128" fill="white" transform="translate(0.5)"/>
</clipPath>
</defs>
</svg>
