<svg width="24" height="32" viewBox="0 0 24 32" fill="none" xmlns="http://www.w3.org/2000/svg">
<path d="M11.7139 9.33594C14.3648 9.33594 16.5137 11.5745 16.5137 14.3359C16.5137 17.0974 14.3648 19.3359 11.7139 19.3359C9.06299 19.3358 6.91406 17.0973 6.91406 14.3359C6.91406 11.5746 9.06299 9.33605 11.7139 9.33594ZM11.7139 12.0039C10.4769 12.0039 9.4738 13.0484 9.47363 14.3369C9.47363 15.6256 10.4767 16.6709 11.7139 16.6709C12.9508 16.6707 13.9531 15.6254 13.9531 14.3369C13.953 13.0485 12.9507 12.0041 11.7139 12.0039Z" fill="white"/>
<path fill-rule="evenodd" clip-rule="evenodd" d="M9.13196 20.668H14.2527L16.16 22.668H7.1875L9.13196 20.668Z" fill="white"/>
<path d="M14.8799 17.168C16.3518 17.1681 17.5799 18.417 17.5801 20.001C17.5801 21.5851 16.3519 22.8349 14.8799 22.835C13.4078 22.835 12.1797 21.5852 12.1797 20.001C12.1799 18.4169 13.4079 17.168 14.8799 17.168Z" fill="#13A449" stroke="#13A449"/>
<path d="M13.0918 19.624L14.6424 21.0839L16.769 18.5664" stroke="white" stroke-width="2"/>
</svg>
