<svg width="16" height="16" viewBox="0 0 16 16" fill="none" xmlns="http://www.w3.org/2000/svg">
<rect x="4.5" y="2" width="7" height="12" rx="2" fill="url(#paint0_linear_861_361117)"/>
<path d="M7.2 11.2001C7.09391 11.2001 6.99217 11.2422 6.91716 11.3173C6.84214 11.3923 6.8 11.494 6.8 11.6001C6.8 11.7062 6.84214 11.8079 6.91716 11.8829C6.99217 11.958 7.09391 12.0001 7.2 12.0001H8.8C8.90609 12.0001 9.00783 11.958 9.08284 11.8829C9.15786 11.8079 9.2 11.7062 9.2 11.6001C9.2 11.494 9.15786 11.3923 9.08284 11.3173C9.00783 11.2422 8.90609 11.2001 8.8 11.2001H7.2ZM5.6 1.6001C5.17565 1.6001 4.76869 1.76867 4.46863 2.06873C4.16857 2.36878 4 2.77575 4 3.2001V12.8001C4 13.2244 4.16857 13.6314 4.46863 13.9315C4.76869 14.2315 5.17565 14.4001 5.6 14.4001H10.4C10.8243 14.4001 11.2313 14.2315 11.5314 13.9315C11.8314 13.6314 12 13.2244 12 12.8001V3.2001C12 2.77575 11.8314 2.36878 11.5314 2.06873C11.2313 1.76867 10.8243 1.6001 10.4 1.6001H5.6ZM4.8 3.2001C4.8 2.98792 4.88429 2.78444 5.03431 2.63441C5.18434 2.48438 5.38783 2.4001 5.6 2.4001H10.4C10.6122 2.4001 10.8157 2.48438 10.9657 2.63441C11.1157 2.78444 11.2 2.98792 11.2 3.2001V12.8001C11.2 13.0123 11.1157 13.2158 10.9657 13.3658C10.8157 13.5158 10.6122 13.6001 10.4 13.6001H5.6C5.38783 13.6001 5.18434 13.5158 5.03431 13.3658C4.88429 13.2158 4.8 13.0123 4.8 12.8001V3.2001Z" fill="#CADBFF"/>
<defs>
<linearGradient id="paint0_linear_861_361117" x1="8" y1="2" x2="8" y2="14" gradientUnits="userSpaceOnUse">
<stop stop-color="#EEEFFF" stop-opacity="0.3"/>
<stop offset="1" stop-color="#E9EFFF" stop-opacity="0"/>
</linearGradient>
</defs>
</svg>
