<svg width="15" height="16" viewBox="0 0 15 16" fill="none" xmlns="http://www.w3.org/2000/svg">
<rect x="6.22852" y="6.5" width="1.77905" height="3" rx="0.889523" fill="#F5C5AF"/>
<path d="M4.89258 3.2C4.89258 2.53726 5.42984 2 6.09258 2H8.14019C8.80293 2 9.34019 2.53726 9.34019 3.2V5.77619C9.34019 7.00437 8.34456 8 7.11638 8C5.88821 8 4.89258 7.00437 4.89258 5.77619V3.2Z" fill="#F6CEBB"/>
<path fill-rule="evenodd" clip-rule="evenodd" d="M3.62027 9.31422C5.26221 8.52232 5.6055 10.3942 7.11538 10.3942C8.62526 10.3942 9.20479 7.85053 10.9965 9.63479C12.7882 11.419 12.2537 15.5 12.2537 15.5H2.29548C2.29548 15.5 1.97834 10.1061 3.62027 9.31422Z" fill="#FFCD23"/>
<path fill-rule="evenodd" clip-rule="evenodd" d="M2.95523 2.09603C3.00602 2.95376 2.65644 5.73021 2.95523 6.86547C3.25402 8.00073 5.5973 9.72815 5.5973 9.72815L2.95523 14.4652C2.95523 14.4652 1.42645 8.84124 1.21103 7.34124C0.995611 5.84124 1.82616 1.98969 2.11479 1.23831C2.40341 0.486921 2.90444 1.23831 2.95523 2.09603Z" fill="#FFCD23"/>
</svg>
