<svg width="24" height="32" viewBox="0 0 24 32" fill="none" xmlns="http://www.w3.org/2000/svg">
<path d="M11.6963 9.33594C13.5898 9.33601 15.125 10.8711 15.125 12.7646V15.9072C15.125 17.8007 13.5898 19.3359 11.6963 19.3359C9.80274 19.3359 8.26758 17.8008 8.26758 15.9072V12.7646C8.26758 10.8711 9.80274 9.33594 11.6963 9.33594ZM9.76172 17.3359H13.6016V15.3359H9.76172V17.3359ZM9.76172 12.668V14.668H13.6016V12.668H9.76172Z" fill="white"/>
<path d="M6.29297 18C6.29297 19.0503 8.14969 21.6667 11.6359 21.6667C15.1221 21.6667 16.97 19.0123 16.97 18" stroke="white" stroke-width="3"/>
<path d="M15.501 17.168C16.9729 17.1681 18.201 18.417 18.2012 20.001C18.2012 21.5851 16.973 22.8349 15.501 22.835C14.0288 22.835 12.8008 21.5852 12.8008 20.001C12.8009 18.4169 14.0289 17.168 15.501 17.168Z" fill="#13A449" stroke="#13A449"/>
<path d="M13.7129 19.624L15.2635 21.0839L17.3901 18.5664" stroke="white" stroke-width="2"/>
</svg>
