<svg xmlns="http://www.w3.org/2000/svg" xmlns:xlink="http://www.w3.org/1999/xlink" version="1.1" width="1080" height="1080" viewBox="0 0 1080 1080" xml:space="preserve">
<desc>Created with Fabric.js 5.2.4</desc>
    <defs>
</defs>
    <g transform="matrix(1 0 0 1 540 540)" id="572b2dff-eda6-4b03-93f6-b177aedf68c9">
</g>
    <g transform="matrix(1 0 0 1 540 540)" id="e485df9c-0631-40d7-a606-77673a5111c0">
<rect style="stroke: none; stroke-width: 1; stroke-dasharray: none; stroke-linecap: butt; stroke-dashoffset: 0; stroke-linejoin: miter; stroke-miterlimit: 4; fill: rgb(255,255,255); fill-rule: nonzero; opacity: 1; visibility: hidden;" vector-effect="non-scaling-stroke" x="-540" y="-540" rx="0" ry="0" width="1080" height="1080"/>
</g>
    <g transform="matrix(9.07 0 0 9.36 540 540)">
<g style="">
		<g transform="matrix(1 0 0 1 0 0)">
<path style="stroke: none; stroke-width: 1; stroke-dasharray: none; stroke-linecap: butt; stroke-dashoffset: 0; stroke-linejoin: miter; stroke-miterlimit: 4; fill: rgb(78,84,97); fill-rule: nonzero; opacity: 0.5;" vector-effect="non-scaling-stroke" transform=" translate(-70, -70)" d="M 14.5941 123.174 C 14.5941 124.412 15.6276 125.416 16.9026 125.416 L 123.09 125.416 C 124.365 125.416 125.399 124.412 125.399 123.174 L 125.399 120.496 C 125.452 119.689 125.56 115.662 122.905 111.209 C 121.231 108.401 118.801 105.976 115.683 104 C 111.911 101.61 107.113 99.878 101.309 98.8353 C 101.267 98.8298 96.9634 98.2593 92.5548 97.1334 C 84.8779 95.1725 84.2067 93.4371 84.2024 93.4202 C 84.1572 93.2487 84.0918 93.0839 84.0081 92.929 C 83.9454 92.6053 83.7902 91.387 84.0869 88.1227 C 84.8399 79.8317 89.2873 74.9317 92.8608 70.9948 C 93.9878 69.7532 95.0521 68.5804 95.8719 67.4304 C 99.4078 62.4691 99.7359 56.8277 99.7508 56.478 C 99.7508 55.7695 99.6694 55.1871 99.4953 54.6472 C 99.1482 53.5669 98.4952 52.8937 98.0183 52.4023 L 98.0151 52.3988 C 97.895 52.2751 97.7815 52.1578 97.6887 52.0502 C 97.6535 52.0091 97.5595 51.9003 97.645 51.3418 C 97.9588 49.2858 98.1472 47.5644 98.2377 45.9243 C 98.3987 43.0024 98.5244 38.6327 97.7707 34.3799 C 97.6777 33.6536 97.5178 32.8865 97.269 31.9728 C 96.4728 29.0442 95.1935 26.5405 93.4161 24.4741 C 93.1105 24.1416 85.6788 16.312 64.1048 14.7055 C 61.1216 14.4834 58.1726 14.6031 55.2696 14.7514 C 54.5699 14.786 53.6118 14.8335 52.7152 15.0658 C 50.4877 15.6428 49.8933 17.0547 49.7373 17.8448 C 49.4786 19.1537 49.9333 20.1718 50.234 20.8456 C 50.2777 20.9433 50.3317 21.0642 50.2375 21.3787 C 49.7367 22.1543 48.9489 22.8535 48.1457 23.516 C 47.9135 23.7133 42.5037 28.3779 42.2062 34.4715 C 41.4041 39.1058 41.4647 46.3263 42.4132 51.3167 C 42.4684 51.5923 42.5497 52.0003 42.4176 52.276 C 41.3977 53.19 40.2415 54.226 40.2444 56.59 C 40.2567 56.8277 40.5848 62.4691 44.1209 67.4304 C 44.9399 68.5795 46.0034 69.7515 47.1295 70.9922 L 47.1321 70.9948 C 50.7056 74.9317 55.1527 79.8317 55.906 88.1224 C 56.2024 91.3867 56.0472 92.6053 55.9845 92.9287 C 55.9008 93.0836 55.8354 93.2484 55.7905 93.4199 C 55.7859 93.4368 55.1174 95.1667 47.4751 97.1235 C 43.0663 98.2525 38.726 98.8295 38.5965 98.8481 C 32.9565 99.8001 28.1877 101.489 24.4227 103.867 C 21.3153 105.829 18.8811 108.259 17.1875 111.089 C 14.4817 115.61 14.5548 119.728 14.5941 120.48 L 14.5941 123.174 Z" stroke-linecap="round"/>
</g>
    <g transform="matrix(1 0 0 1 0 0)">
<path style="stroke: rgb(114,122,138); stroke-width: 0.73; stroke-dasharray: none; stroke-linecap: butt; stroke-dashoffset: 0; stroke-linejoin: miter; stroke-miterlimit: 4; fill: none; fill-rule: nonzero; opacity: 0.5;" vector-effect="non-scaling-stroke" transform=" translate(-70, -70)" d="M 125.033 120.472 L 125.032 120.484 L 125.032 120.496 L 125.032 123.174 C 125.032 124.2 124.173 125.05 123.09 125.05 L 16.9026 125.05 C 15.8198 125.05 14.9604 124.2 14.9604 123.174 L 14.9604 120.48 L 14.9604 120.47 L 14.9599 120.46 C 14.9227 119.748 14.8473 115.713 17.5019 111.277 C 19.1627 108.502 21.5539 106.112 24.6183 104.176 C 28.3313 101.831 33.0496 100.156 38.6525 99.2101 C 38.6584 99.2093 38.6682 99.208 38.6818 99.2061 C 39.1103 99.1471 43.3049 98.5695 47.566 97.4784 C 51.406 96.4951 53.5214 95.5623 54.6865 94.8577 C 55.2701 94.5047 55.6209 94.2056 55.8313 93.9809 C 55.9367 93.8684 56.0073 93.7741 56.0541 93.7007 C 56.0776 93.664 56.0951 93.6324 56.1082 93.6062 C 56.1158 93.5908 56.1331 93.5555 56.1437 93.5173 L 56.1449 93.5127 C 56.1823 93.3698 56.2368 93.2323 56.3067 93.1029 L 56.3334 93.0536 L 56.3441 92.9985 C 56.4164 92.6253 56.5684 91.3669 56.2708 88.0892 L 55.906 88.1224 L 56.2708 88.0892 C 55.5063 79.6756 50.9878 74.6976 47.4146 70.7611 L 47.4033 70.7486 L 47.3975 70.7422 L 47.3949 70.7395 C 46.2671 69.497 45.2218 68.3439 44.4192 67.2178 L 44.1209 67.4304 L 44.4192 67.2178 C 40.9828 62.3965 40.6288 56.9094 40.6107 56.5801 C 40.6109 55.4689 40.881 54.6893 41.2584 54.0828 C 41.6431 53.4647 42.1481 53.0094 42.6621 52.5487 L 42.7164 52.5001 L 42.7479 52.4343 C 42.854 52.2129 42.8634 51.9676 42.8512 51.7734 C 42.8389 51.5772 42.8006 51.3858 42.7737 51.2514 L 42.7731 51.2483 C 42.773 51.2477 42.7729 51.2472 42.7728 51.2466 C 41.8325 46.298 41.7728 39.123 42.5671 34.5339 L 42.5709 34.5118 L 42.572 34.4893 C 42.7159 31.5428 44.0987 28.9221 45.4967 26.9979 C 46.8838 25.0889 48.2627 23.8974 48.3809 23.7968 C 49.1822 23.1359 50.0106 22.4054 50.5452 21.5774 L 50.5735 21.5337 L 50.5884 21.4838 C 50.6443 21.297 50.6648 21.14 50.6524 20.9988 C 50.6398 20.8553 50.5946 20.7546 50.5699 20.6994 L 50.5685 20.6963 C 50.2689 20.0249 49.8622 19.1016 50.0966 17.9159 L 50.0966 17.9158 C 50.1658 17.5658 50.332 17.0778 50.7282 16.613 C 51.1218 16.1513 51.7597 15.6917 52.807 15.4204 L 52.7152 15.0658 L 52.8071 15.4204 C 53.6618 15.1989 54.5833 15.1521 55.2877 15.1173 L 55.2883 15.1173 C 58.1911 14.9689 61.1197 14.8506 64.0776 15.0708 C 85.4599 16.663 92.8358 24.3864 93.1425 24.7178 C 94.8779 26.7368 96.1324 29.1884 96.9156 32.0689 L 96.9156 32.069 C 97.1612 32.9709 97.317 33.721 97.4074 34.4264 L 97.4085 34.4351 L 97.41 34.4438 C 98.156 38.6532 98.0326 42.9882 97.8719 45.9042 C 97.7823 47.5298 97.5954 49.2392 97.2829 51.2864 C 97.2374 51.5838 97.234 51.7942 97.2604 51.9509 C 97.274 52.0321 97.2964 52.1029 97.3278 52.1654 C 97.3606 52.2306 97.3966 52.2722 97.4108 52.2888 L 97.4113 52.2893 C 97.5112 52.4053 97.6309 52.5289 97.7481 52.6495 L 97.748 52.6496 L 97.7554 52.6573 C 98.2305 53.1469 98.8279 53.7672 99.1466 54.7593 L 99.1467 54.7597 C 99.306 55.2535 99.3839 55.7944 99.3845 56.4699 C 99.3663 56.8655 99.0235 62.3773 95.5737 67.2177 C 94.7688 68.3467 93.7204 69.5028 92.5895 70.7486 L 92.5778 70.7615 C 89.0047 74.698 84.4863 79.6759 83.7221 88.0895 C 83.4242 91.3672 83.5762 92.6253 83.6485 92.9987 L 83.6592 93.0538 L 83.6859 93.1032 C 83.7558 93.2326 83.8104 93.3703 83.8482 93.5136 C 83.8559 93.5428 83.8669 93.5679 83.8678 93.57 L 83.8678 93.5701 C 83.8725 93.5812 83.8781 93.5933 83.8846 93.6064 C 83.8977 93.6327 83.9154 93.6645 83.9389 93.7013 C 83.9859 93.7749 84.0567 93.8695 84.1625 93.9823 C 84.3737 94.2076 84.7259 94.5075 85.312 94.8614 C 86.4821 95.5679 88.6068 96.5031 92.4642 97.4883 C 96.795 98.5943 101.021 99.1664 101.253 99.1973 C 107.02 100.234 111.767 101.952 115.487 104.31 C 118.563 106.259 120.949 108.644 122.59 111.397 C 125.193 115.762 125.083 119.706 125.033 120.472 Z" stroke-linecap="round"/>
</g>
</g>
</g>
</svg>