<svg width="24" height="32" viewBox="0 0 24 32" fill="none" xmlns="http://www.w3.org/2000/svg">
<path d="M12 15.333C12 17.5421 10.2091 19.333 8 19.333C5.79086 19.333 4 17.5421 4 15.333V10H12V15.333ZM7.29688 13.2441L5.54492 13.499L6.81348 14.7354L6.51367 16.4805L8.08105 15.6562L9.64844 16.4805L9.34961 14.7354L10.6172 13.499L8.86523 13.2441L8.08105 11.6562L7.29688 13.2441Z" fill="white"/>
<rect x="1.87305" y="11.7539" width="2.66667" height="6" transform="rotate(-20 1.87305 11.7539)" fill="white"/>
<path fill-rule="evenodd" clip-rule="evenodd" d="M14.2051 11.7539L11.6992 10.8419L9.64711 16.48L12.153 17.3921L14.2051 11.7539Z" fill="white"/>
<rect x="7.04102" y="18.0117" width="2" height="4" fill="white"/>
<rect x="5.70703" y="20.6797" width="4.66667" height="2" fill="white"/>
<path d="M14.05 14.96L16.03 16.94L18 14.96L18.48 15.44L16.5 17.41L18.48 19.39L18 19.87L16.03 17.89L14.05 19.87L13.57 19.39L15.56 17.41L13.57 15.44L14.05 14.96ZM21.3547 12.86H21.9947V20H21.1747V13.86C20.7247 14.32 20.1647 14.64 19.4947 14.84V14.02C19.8147 13.93 20.1547 13.79 20.4947 13.59C20.8347 13.37 21.1147 13.13 21.3547 12.86Z" fill="white"/>
</svg>
