<svg width="24" height="32" viewBox="0 0 24 32" fill="none" xmlns="http://www.w3.org/2000/svg">
<path d="M8.89169 17.448H10.3462V15.9935C10.3462 15.7874 10.4161 15.6145 10.5557 15.4749C10.6953 15.3353 10.8679 15.2657 11.0735 15.2662H12.5281V16.7207L14.7099 14.5389L12.5281 12.3571V13.8116H11.0735C10.4674 13.8116 9.9523 14.0238 9.52805 14.448C9.10381 14.8722 8.89169 15.3874 8.89169 15.9935V17.448ZM4.52806 22.5389C4.322 22.5389 4.14915 22.4691 4.00951 22.3294C3.86987 22.1898 3.8003 22.0172 3.80078 21.8116C3.80078 21.6056 3.8706 21.4327 4.01024 21.2931C4.14987 21.1535 4.32248 21.0839 4.52806 21.0844H19.0735C19.2796 21.0844 19.4524 21.1542 19.5921 21.2938C19.7317 21.4335 19.8013 21.6061 19.8008 21.8116C19.8008 22.0177 19.731 22.1905 19.5913 22.3302C19.4517 22.4698 19.2791 22.5394 19.0735 22.5389H4.52806ZM5.9826 20.3571C5.5826 20.3571 5.24006 20.2145 4.95497 19.9295C4.66987 19.6444 4.52757 19.3021 4.52806 18.9025V10.9025C4.52806 10.5025 4.6706 10.16 4.95569 9.87491C5.24078 9.58982 5.58309 9.44751 5.9826 9.448H17.619C18.019 9.448 18.3615 9.59054 18.6466 9.87564C18.9317 10.1607 19.074 10.503 19.0735 10.9025V18.9025C19.0735 19.3025 18.931 19.6451 18.6459 19.9302C18.3608 20.2153 18.0185 20.3576 17.619 20.3571H5.9826Z" fill="white"/>
<ellipse cx="17.0008" cy="19.2188" rx="3.2" ry="3.33333" fill="#FA6400"/>
<path d="M15.082 19.2188H18.9303" stroke="white" stroke-width="2"/>
</svg>
