<svg width="16" height="17" viewBox="0 0 16 17" fill="none" xmlns="http://www.w3.org/2000/svg">
<path d="M14.2218 7.61117V3.27783C14.2218 2.72555 13.7741 2.27783 13.2218 2.27783H2.77734C2.22506 2.27783 1.77734 2.72555 1.77734 3.27783V11.9445C1.77734 12.4968 2.22506 12.9445 2.77734 12.9445H4.51853C4.75724 12.9445 4.98808 13.0299 5.16932 13.1852L7.34877 15.0533C7.72326 15.3743 8.27587 15.3743 8.65036 15.0533L8.77734 14.9445" stroke="#C5CCDB" stroke-linecap="round" stroke-linejoin="round"/>
<path d="M5.33203 5.83325H10.6654" stroke="#C5CCDB" stroke-linecap="round" stroke-linejoin="round"/>
<path d="M5.33203 9.38892H7.9987" stroke="#C5CCDB" stroke-linecap="round" stroke-linejoin="round"/>
<path d="M12 8.5L14.5981 10V13L12 14.5L9.40192 13V10L12 8.5Z" stroke="#C5CCDB" stroke-linecap="round" stroke-linejoin="round"/>
<circle cx="12" cy="11.5" r="1" fill="#C5CCDB"/>
</svg>
