<svg width="24" height="24" viewBox="0 0 24 24" fill="none" xmlns="http://www.w3.org/2000/svg">
<path fill-rule="evenodd" clip-rule="evenodd" d="M7.32161 6H4.625C4.07272 6 3.625 6.44772 3.625 7V17C3.625 17.5523 4.07272 18 4.625 18H15.2917C15.5997 18 15.8753 17.8607 16.0587 17.6416L15.2917 16.6196V17H4.625V7L8.07211 7L7.32161 6ZM15.2917 14.9657V13.7053L16.6313 14.1891L18.625 14.909V9.09098L16.6313 9.81092L15.2917 10.2947V8.87037V7L9.31339 7L8.56289 6H15.2917C15.844 6 16.2917 6.44772 16.2917 7V7.80717V8.87037L17.2917 8.50926L18.2854 8.15043C18.9372 7.91505 19.625 8.39796 19.625 9.09098V14.909C19.625 15.602 18.9372 16.085 18.2854 15.8496L17.2917 15.4907L16.2917 15.1296V16.1928V16.2981L15.2917 14.9657Z" fill="white"/>
<path d="M6 4.99976L15.7716 18.0198" stroke="white" stroke-linecap="round" stroke-linejoin="round"/>
</svg>
