<svg width="24" height="24" viewBox="0 0 24 24" fill="none" xmlns="http://www.w3.org/2000/svg">
<path d="M7 5.21774L16.7716 18.2378" stroke="white" stroke-linecap="round" stroke-linejoin="round"/>
<path fill-rule="evenodd" clip-rule="evenodd" d="M8.84406 6.91647C8.72739 7.25613 8.66406 7.62057 8.66406 7.99981V12.3331C8.66406 14.1741 10.1564 15.6665 11.9974 15.6665C13.0126 15.6665 13.9218 15.2127 14.5331 14.4968L13.9113 13.6682C13.4895 14.2717 12.7895 14.6665 11.9974 14.6665C10.7087 14.6665 9.66406 13.6218 9.66406 12.3331V8.00908L8.84406 6.91647ZM14.32 12.5589C14.3271 12.4846 14.3307 12.4093 14.3307 12.3331V7.99981C14.3307 6.71114 13.2861 5.66647 11.9974 5.66647C11.1482 5.66647 10.4049 6.12017 9.99672 6.7984L9.36423 5.95565C9.9741 5.17118 10.9268 4.66647 11.9974 4.66647C13.8383 4.66647 15.3307 6.15886 15.3307 7.99981V12.3331C15.3307 12.7751 15.2447 13.197 15.0885 13.5829L14.32 12.5589Z" fill="white"/>
<path fill-rule="evenodd" clip-rule="evenodd" d="M15.45 15.7159C14.5727 16.6112 13.3499 17.1668 11.9974 17.1668C9.32802 17.1668 7.16406 15.0028 7.16406 12.3335V11.8335C7.16406 11.5573 6.9402 11.3335 6.66406 11.3335C6.38792 11.3335 6.16406 11.5573 6.16406 11.8335V12.3335C6.16406 15.3871 8.51048 17.8928 11.4987 18.1458V19.5001C11.4987 19.7763 11.7226 20.0001 11.9987 20.0001C12.2748 20.0001 12.4987 19.7763 12.4987 19.5001V18.1455C13.8769 18.0282 15.1184 17.4318 16.056 16.5234L15.45 15.7159ZM16.7215 15.7562C17.4193 14.7948 17.8307 13.6122 17.8307 12.3335V11.8335C17.8307 11.5573 17.6069 11.3335 17.3307 11.3335C17.0546 11.3335 16.8307 11.5573 16.8307 11.8335V12.3335C16.8307 13.281 16.5581 14.1648 16.087 14.9107L16.7215 15.7562Z" fill="white"/>
</svg>
