<svg width="20" height="20" viewBox="0 0 20 20" fill="none" xmlns="http://www.w3.org/2000/svg">
<path d="M8.3916 2.16406L11.6035 2.16406C11.6896 2.16407 11.7841 2.25099 11.7959 2.30566L11.7959 2.30664L12.0088 3.30469C12.061 3.55013 12.192 3.78169 12.3379 3.96387C12.4778 4.13863 12.665 4.30679 12.8789 4.41504L12.8789 4.41699L13.5723 4.80176L13.5723 4.7998C13.7755 4.92462 14.0164 4.99673 14.2383 5.02637C14.4714 5.05745 14.7377 5.05102 14.9756 4.97461L15.9707 4.65527C16.0516 4.62965 16.1757 4.6828 16.209 4.73828L17.8154 7.43457C17.8379 7.47232 17.8354 7.54484 17.8105 7.59766L17.7783 7.6416L16.9961 8.31641C16.8061 8.48046 16.6647 8.7053 16.5742 8.9209C16.4884 9.12535 16.4307 9.36855 16.4404 9.60742L16.4385 9.60742L16.4365 10.3828L16.4385 10.3828C16.4279 10.6228 16.4861 10.8672 16.5723 11.0723C16.6629 11.288 16.8042 11.5128 16.9941 11.6768L17.7783 12.3535C17.8303 12.3988 17.845 12.5097 17.8154 12.5596L16.209 15.2568C16.1756 15.312 16.051 15.3649 15.9697 15.3389L15.9707 15.3389L14.9736 15.0195C14.736 14.9433 14.4703 14.9369 14.2373 14.9678C14.0146 14.9973 13.7722 15.0689 13.5684 15.1943L13.5684 15.1934L12.877 15.5801L12.877 15.5811C12.6637 15.6895 12.4778 15.8585 12.3379 16.0332C12.1919 16.2155 12.06 16.4466 12.0078 16.6924L11.7959 17.6885L11.7959 17.6895C11.7841 17.7438 11.6899 17.8311 11.6035 17.8311L8.3916 17.8311C8.30548 17.8311 8.21098 17.7435 8.19922 17.6885L7.98633 16.6904C7.93398 16.445 7.80323 16.2135 7.65723 16.0313C7.51698 15.8562 7.32958 15.6873 7.11523 15.5791L7.11621 15.5781L6.42285 15.1934L6.42188 15.1943C6.21865 15.0697 5.97759 14.9983 5.75586 14.9688C5.5227 14.9377 5.25633 14.9432 5.01855 15.0195L4.02441 15.3389C3.94307 15.3648 3.81832 15.3115 3.78516 15.2559L3.78418 15.2559L2.17969 12.5596L2.17871 12.5596C2.14943 12.51 2.16363 12.398 2.21582 12.3525L2.2168 12.3535L2.99902 11.6777C3.18903 11.5137 3.33042 11.2897 3.4209 11.0742C3.50697 10.8692 3.56373 10.625 3.55371 10.3857L3.55566 10.3867L3.55762 9.6123L3.55664 9.61133C3.56693 9.37181 3.50888 9.12778 3.42285 8.92285C3.35491 8.7611 3.25791 8.59457 3.13379 8.45215L3.00098 8.31836L2.2168 7.6416C2.17775 7.60788 2.15892 7.5364 2.16504 7.48145L2.17969 7.43457L3.78516 4.73828C3.81861 4.68236 3.94382 4.62944 4.02441 4.65527L5.02051 4.97559C5.25825 5.05194 5.52457 5.05835 5.75781 5.02734C5.97989 4.99782 6.2213 4.92585 6.4248 4.80078L6.42578 4.80176L7.11816 4.41406L7.11719 4.41211C7.33046 4.3038 7.51734 4.13651 7.65723 3.96191C7.80319 3.77968 7.93499 3.54837 7.9873 3.30273L8.19922 2.30664C8.21103 2.25129 8.30579 2.16406 8.3916 2.16406Z" fill="url(#paint0_linear_294_68303)" fill-opacity="0.4" stroke="#D1D9EC"/>
<path fill-rule="evenodd" clip-rule="evenodd" d="M9.99837 11.974C11.0898 11.974 11.9746 11.0892 11.9746 9.99782C11.9746 8.9064 11.0898 8.02163 9.99837 8.02163C8.90695 8.02163 8.02218 8.9064 8.02218 9.99782C8.02218 11.0892 8.90695 11.974 9.99837 11.974ZM13 10C13 11.6569 11.6569 13 10 13C8.34315 13 7 11.6569 7 10C7 8.34315 8.34315 7 10 7C11.6569 7 13 8.34315 13 10Z" fill="url(#paint1_linear_294_68303)"/>
<defs>
<linearGradient id="paint0_linear_294_68303" x1="6.2474" y1="18.3307" x2="6.2474" y2="2.4974" gradientUnits="userSpaceOnUse">
<stop stop-color="#D1D9EC"/>
<stop offset="1" stop-color="#D1D9EC" stop-opacity="0"/>
</linearGradient>
<linearGradient id="paint1_linear_294_68303" x1="9.99837" y1="7.08116" x2="9.99837" y2="18.7478" gradientUnits="userSpaceOnUse">
<stop stop-color="#D1D9EC"/>
<stop offset="1" stop-color="#D1D9EC" stop-opacity="0"/>
</linearGradient>
</defs>
</svg>
