<svg width="26" height="26" viewBox="0 0 26 26" fill="none" xmlns="http://www.w3.org/2000/svg">
<path d="M7.99935 17.585L6.74935 17.585L4.66602 17.585L4.66602 6.33459C4.66602 5.87457 5.03911 5.50165 5.49935 5.50165L20.4993 5.50165C20.9596 5.50165 21.3327 5.87457 21.3327 6.33459L21.3327 17.585L17.9993 17.585" stroke="#D1D9EC" stroke-width="1.25" stroke-linecap="round" stroke-linejoin="round"/>
<path d="M12.9993 13.4183L8.20768 17.585L6.74935 17.585L4.66602 17.585L4.66602 6.33459C4.66602 5.87457 5.03911 5.50165 5.49935 5.50165L20.4993 5.50165C20.9596 5.50165 21.3327 5.87457 21.3327 6.33459L21.3327 17.585L17.9993 17.585L12.9993 13.4183Z" fill="url(#paint0_linear_100_36072)" fill-opacity="0.4"/>
<path d="M12.9987 16.3317L8.83203 20.4984L17.1654 20.4984L12.9987 16.3317Z" stroke="url(#paint1_linear_100_36072)" stroke-linejoin="round"/>
<defs>
<linearGradient id="paint0_linear_100_36072" x1="19.666" y1="17.585" x2="19.666" y2="5.4988" gradientUnits="userSpaceOnUse">
<stop stop-color="#D1D9EC"/>
<stop offset="1" stop-color="#D1D9EC" stop-opacity="0"/>
</linearGradient>
<linearGradient id="paint1_linear_100_36072" x1="15.9154" y1="20.4984" x2="15.9154" y2="5.50165" gradientUnits="userSpaceOnUse">
<stop stop-color="#D1D9EC"/>
<stop offset="1" stop-color="#D1D9EC" stop-opacity="0"/>
</linearGradient>
</defs>
</svg>
