<svg width="24" height="32" viewBox="0 0 24 32" fill="none" xmlns="http://www.w3.org/2000/svg">
<path fill-rule="evenodd" clip-rule="evenodd" d="M11.6152 9.31641L14.7608 11.6107L8.15318 21.4405L5.61874 21.4405L5.00763 19.1462L11.6152 9.31641Z" fill="white"/>
<path d="M10.5391 21.331C10.5391 21.331 11.8778 19.8711 12.8159 19.8711C13.7539 19.8711 14.8872 21.0256 15.6676 21.0256C16.448 21.0256 17.7886 20.3427 17.7886 20.3427" stroke="white" stroke-width="3"/>
<path d="M14.8799 17.168C16.3518 17.1681 17.5799 18.417 17.5801 20.001C17.5801 21.5851 16.3519 22.8349 14.8799 22.835C13.4078 22.835 12.1797 21.5852 12.1797 20.001C12.1799 18.4169 13.4079 17.168 14.8799 17.168Z" fill="#13A449" stroke="#13A449"/>
<path d="M13.0918 19.624L14.6424 21.0839L16.769 18.5664" stroke="white" stroke-width="2"/>
</svg>
