<svg width="24" height="32" viewBox="0 0 24 32" fill="none" xmlns="http://www.w3.org/2000/svg">
<path d="M11.7139 9.33594C14.3648 9.33594 16.5137 11.5745 16.5137 14.3359C16.5137 17.0974 14.3648 19.3359 11.7139 19.3359C9.06299 19.3358 6.91406 17.0973 6.91406 14.3359C6.91406 11.5746 9.06299 9.33605 11.7139 9.33594ZM11.7139 12.0039C10.4769 12.0039 9.4738 13.0484 9.47363 14.3369C9.47363 15.6256 10.4767 16.6709 11.7139 16.6709C12.9508 16.6707 13.9531 15.6254 13.9531 14.3369C13.953 13.0485 12.9507 12.0041 11.7139 12.0039Z" fill="white"/>
<path fill-rule="evenodd" clip-rule="evenodd" d="M9.13196 20.668H14.2527L16.16 22.668H7.1875L9.13196 20.668Z" fill="white"/>
<ellipse cx="15.5203" cy="19.9974" rx="3.2" ry="3.33333" fill="#FA6400"/>
<path d="M13.6016 19.9974H17.4498" stroke="white" stroke-width="2"/>
</svg>
