<svg width="24" height="32" viewBox="0 0 24 32" fill="none" xmlns="http://www.w3.org/2000/svg">
<path d="M8.89169 17.446H10.3462V15.9915C10.3462 15.7854 10.4161 15.6126 10.5557 15.473C10.6953 15.3333 10.8679 15.2637 11.0735 15.2642H12.5281V16.7188L14.7099 14.537L12.5281 12.3551V13.8097H11.0735C10.4674 13.8097 9.9523 14.0218 9.52805 14.446C9.10381 14.8703 8.89169 15.3854 8.89169 15.9915V17.446ZM4.52806 22.537C4.322 22.537 4.14915 22.4671 4.00951 22.3275C3.86987 22.1879 3.8003 22.0153 3.80078 21.8097C3.80078 21.6036 3.8706 21.4308 4.01024 21.2911C4.14987 21.1515 4.32248 21.0819 4.52806 21.0824H19.0735C19.2796 21.0824 19.4524 21.1522 19.5921 21.2919C19.7317 21.4315 19.8013 21.6041 19.8008 21.8097C19.8008 22.0157 19.731 22.1886 19.5913 22.3282C19.4517 22.4679 19.2791 22.5374 19.0735 22.537H4.52806ZM5.9826 20.3551C5.5826 20.3551 5.24006 20.2126 4.95497 19.9275C4.66987 19.6424 4.52757 19.3001 4.52806 18.9006V10.9006C4.52806 10.5006 4.6706 10.158 4.95569 9.87296C5.24078 9.58786 5.58309 9.44556 5.9826 9.44605H17.619C18.019 9.44605 18.3615 9.58859 18.6466 9.87368C18.9317 10.1588 19.074 10.5011 19.0735 10.9006V18.9006C19.0735 19.3006 18.931 19.6431 18.6459 19.9282C18.3608 20.2133 18.0185 20.3556 17.619 20.3551H5.9826Z" fill="white"/>
<path d="M17.001 16.3875C18.4729 16.3876 19.701 17.6364 19.7012 19.2205C19.7012 20.8046 18.473 22.0543 17.001 22.0544C15.5288 22.0544 14.3008 20.8047 14.3008 19.2205C14.3009 17.6364 15.5289 16.3875 17.001 16.3875Z" fill="#13A449" stroke="#13A449"/>
<path d="M15.2129 18.8434L16.7635 20.3034L18.8901 17.7859" stroke="white" stroke-width="2"/>
</svg>
