<svg width="24" height="24" viewBox="0 0 24 24" fill="none" xmlns="http://www.w3.org/2000/svg">
<path d="M12.0615 14L13.8555 12.2949C14.0041 12.3433 14.1511 12.397 14.2959 12.457C15.0239 12.7586 15.685 13.2007 16.2422 13.7578C16.7993 14.315 17.2414 14.9761 17.543 15.7041C17.8445 16.432 18 17.2121 18 18H6C6 17.2121 6.15552 16.432 6.45703 15.7041C6.75856 14.9761 7.20066 14.315 7.75781 13.7578C8.31496 13.2007 8.97615 12.7586 9.7041 12.457C9.88767 12.381 10.0742 12.3131 10.2637 12.2559L12.0615 14Z" fill="#CFD4E5"/>
<ellipse cx="12.0258" cy="8.32645" rx="2.99454" ry="2.99442" fill="#CFD4E5"/>
<ellipse cx="15.9975" cy="15.9974" rx="3.33346" ry="3.33333" fill="#13A449"/>
<path d="M15.9948 14.3973V17.7306" stroke="#CFD4E5" stroke-linecap="round" stroke-linejoin="round"/>
<path d="M14.2266 16.064L15.998 17.7499L17.8056 16.064" stroke="#CFD4E5" stroke-linecap="round" stroke-linejoin="round"/>
</svg>