<svg width="16" height="17" viewBox="0 0 16 17" fill="none" xmlns="http://www.w3.org/2000/svg">
<path fill-rule="evenodd" clip-rule="evenodd" d="M6.68962 2.29321H9.30951V4.91311H14.2218V7.53299H1.77734V4.91311H6.68962V2.29321Z" stroke="white" stroke-linejoin="round"/>
<path d="M2.76172 13.4559H13.2413V7.56116H2.76172V13.4559Z" stroke="white" stroke-linejoin="round"/>
<path d="M5.87891 11.4629C5.87891 11.1867 5.65505 10.9629 5.37891 10.9629C5.10276 10.9629 4.87891 11.1867 4.87891 11.4629H5.87891ZM5.87891 13.4224V11.4629H4.87891V13.4224H5.87891Z" fill="white"/>
<path d="M8.5 11.4574C8.5 11.1813 8.27614 10.9574 8 10.9574C7.72386 10.9574 7.5 11.1813 7.5 11.4574H8.5ZM8.5 13.4223V11.4574H7.5V13.4223H8.5Z" fill="white"/>
<path d="M11.1211 11.4629C11.1211 11.1867 10.8972 10.9629 10.6211 10.9629C10.345 10.9629 10.1211 11.1867 10.1211 11.4629H11.1211ZM11.1211 13.4224V11.4629H10.1211V13.4224H11.1211Z" fill="white"/>
</svg>
