<svg width="16" height="17" viewBox="0 0 16 17" fill="none" xmlns="http://www.w3.org/2000/svg">
<circle cx="7.99984" cy="8.44454" r="3.57015" stroke="white"/>
<circle cx="7.99965" cy="8.44448" r="1.03872" fill="white"/>
<path fill-rule="evenodd" clip-rule="evenodd" d="M8 3.44446C7.72386 3.44446 7.5 3.2206 7.5 2.94446L7.5 1.94446C7.5 1.66832 7.72386 1.44446 8 1.44446C8.27614 1.44446 8.5 1.66832 8.5 1.94446L8.5 2.94446C8.5 3.2206 8.27614 3.44446 8 3.44446Z" fill="white"/>
<path fill-rule="evenodd" clip-rule="evenodd" d="M3 8.44446C3 8.7206 2.77614 8.94446 2.5 8.94446L1.5 8.94446C1.22386 8.94446 1 8.7206 1 8.44446C1 8.16832 1.22386 7.94446 1.5 7.94446L2.5 7.94446C2.77614 7.94446 3 8.16832 3 8.44446Z" fill="white"/>
<path fill-rule="evenodd" clip-rule="evenodd" d="M8 15.4445C7.72386 15.4445 7.5 15.2206 7.5 14.9445L7.5 13.9445C7.5 13.6683 7.72386 13.4445 8 13.4445C8.27614 13.4445 8.5 13.6683 8.5 13.9445L8.5 14.9445C8.5 15.2206 8.27614 15.4445 8 15.4445Z" fill="white"/>
<path fill-rule="evenodd" clip-rule="evenodd" d="M15 8.44446C15 8.7206 14.7761 8.94446 14.5 8.94446L13.5 8.94446C13.2239 8.94446 13 8.7206 13 8.44446C13 8.16832 13.2239 7.94446 13.5 7.94446L14.5 7.94446C14.7761 7.94446 15 8.16832 15 8.44446Z" fill="white"/>
</svg>
