<svg xmlns="http://www.w3.org/2000/svg" width="24" height="24" viewBox="0 0 24 24" fill="none">
  <path d="M8 17.5H4C3.44772 17.5 3 17.0523 3 16.5V4.5C3 3.94772 3.44772 3.5 4 3.5H20C20.5523 3.5 21 3.94772 21 4.5V16.5C21 17.0523 20.5523 17.5 20 17.5H16" stroke="white" stroke-width="1.2" stroke-linecap="round" stroke-linejoin="round"/>
  <path d="M7 20.5H17" stroke="white" stroke-width="1.2" stroke-linecap="round" stroke-linejoin="round"/>
  <path d="M15.0319 10.1723C15.2594 10.3315 15.2594 10.6685 15.0319 10.8277L11.1294 13.5594C10.8643 13.745 10.5 13.5553 10.5 13.2317L10.5 7.76826C10.5 7.44465 10.8643 7.25499 11.1294 7.44057L15.0319 10.1723Z" fill="white"/>
</svg>