<svg width="24" height="24" viewBox="0 0 24 24" fill="none" xmlns="http://www.w3.org/2000/svg">
<g id="ic_handclap&#229;&#164;&#135;&#228;&#187;&#189;">
<g id="&#231;&#188;&#150;&#231;&#187;&#132; 12">
<g id="&#231;&#188;&#150;&#231;&#187;&#132; 10">
<path id="&#232;&#183;&#175;&#229;&#190;&#132; 58&#229;&#164;&#135;&#228;&#187;&#189;" fill-rule="evenodd" clip-rule="evenodd" d="M15.8611 10.8396L10.2857 4.97391C10.2857 4.97391 9.34622 4.36788 8.64634 4.97391C7.94645 5.57995 8.64634 6.54914 8.64634 6.54914C8.64634 6.54914 8.22541 5.86613 7.73285 5.59136C7.24029 5.31659 6.82873 5.24146 6.08108 5.74854C5.47887 6.15696 5.51798 6.95083 5.62317 7.23247C5.85348 7.84913 6.63036 8.56576 6.63036 8.56576C6.63036 8.56576 5.59949 7.90623 4.9373 8.70631C4.38904 9.36873 4.88382 10.0691 5.01643 10.3096C5.30929 10.8405 6.63036 11.7658 6.63036 11.7658C6.63036 11.7658 5.55991 11.3982 5.13776 11.8741C4.68617 12.3833 4.78529 13.0799 5.09873 13.6181C5.80007 14.8225 9.46114 19.4874 11.617 19.9252C13.7729 20.363 16.1322 19.4874 17.8636 17.3228C19.595 15.1581 19.9717 13.264 19.0713 11.0354C18.1708 8.80683 15.0481 5.96565 14.251 5.59136C13.4538 5.21706 12.7188 6.38476 13.2287 8.04669" fill="#F5C5AF"/>
<path id="&#232;&#183;&#175;&#229;&#190;&#132; 58" fill-rule="evenodd" clip-rule="evenodd" d="M13.3914 11.4568L7.81596 5.5911C7.81596 5.5911 6.87649 4.98507 6.17661 5.5911C5.47673 6.19713 6.17661 7.16633 6.17661 7.16633C6.17661 7.16633 5.75568 6.48331 5.26312 6.20854C4.77057 5.93378 4.35901 5.85865 3.61135 6.36573C3.00914 6.77415 3.04825 7.56802 3.15344 7.84966C3.38375 8.46631 4.16063 9.18294 4.16063 9.18294C4.16063 9.18294 3.12976 8.52342 2.46758 9.3235C1.91932 9.98592 2.41409 10.6863 2.5467 10.9267C2.83956 11.4577 4.16063 12.383 4.16063 12.383C4.16063 12.383 3.09018 12.0153 2.66803 12.4913C2.21644 13.0005 2.31556 13.697 2.62901 14.2353C3.33035 15.4396 8.1604 19.2727 10.3163 19.7106C12.4722 20.1484 13.6625 20.1046 15.3939 17.9399C17.1253 15.7753 17.502 13.8812 16.6015 11.6526C15.7011 9.42402 12.5784 6.58284 11.7812 6.20854C10.9841 5.83425 10.2491 7.00195 10.759 8.66387" fill="#F6CEBB"/>
<path id="&#231;&#159;&#169;&#229;&#189;&#162;" fill-rule="evenodd" clip-rule="evenodd" d="M10.6511 19.6298L17.3122 13.1962L19.0275 14.9728L12.3665 21.4064L10.6511 19.6298Z" fill="white"/>
<path id="&#231;&#159;&#169;&#229;&#189;&#162;&#229;&#164;&#135;&#228;&#187;&#189; 2" fill-rule="evenodd" clip-rule="evenodd" d="M11.3213 21.1587L18.7046 13.9466L20.8413 16.0937L13.458 23.3059L11.3213 21.1587Z" fill="#FFCD23"/>
</g>
<path id="&#232;&#183;&#175;&#229;&#190;&#132; 59" d="M11.0499 0.937988V2.69117" stroke="#429A7D" stroke-width="1.6" stroke-linecap="round"/>
<path id="&#232;&#183;&#175;&#229;&#190;&#132; 59&#229;&#164;&#135;&#228;&#187;&#189;" d="M14.5476 2.31152L13.5928 3.78187" stroke="#429A7D" stroke-width="1.6" stroke-linecap="round"/>
<path id="&#232;&#183;&#175;&#229;&#190;&#132; 59&#229;&#164;&#135;&#228;&#187;&#189; 2" d="M7.72581 2.31152L8.68066 3.78187" stroke="#429A7D" stroke-width="1.6" stroke-linecap="round"/>
</g>
</g>
</svg>
