<svg width="25" height="24" viewBox="0 0 25 24" fill="none" xmlns="http://www.w3.org/2000/svg">
<g id="&#231;&#188;&#150;&#231;&#187;&#132; 5&#229;&#164;&#135;&#228;&#187;&#189;">
<mask id="mask0_468_39775" style="mask-type:luminance" maskUnits="userSpaceOnUse" x="0" y="0" width="25" height="24">
<rect id="&#231;&#159;&#169;&#229;&#189;&#162;" x="0.400391" width="24" height="24" fill="white"/>
</mask>
<g mask="url(#mask0_468_39775)">
<path id="&#232;&#183;&#175;&#229;&#190;&#132; 48" fill-rule="evenodd" clip-rule="evenodd" d="M10.2646 14.8058C10.2646 14.8058 8.69552 13.7383 7.93754 13.7383C7.17957 13.7383 5.69654 14.1709 6.49306 15.6647C7.28959 17.1584 9.1331 18.5383 9.1331 18.5383L10.2646 14.8058Z" fill="url(#paint0_linear_468_39775)"/>
<path id="&#232;&#183;&#175;&#229;&#190;&#132; 30" fill-rule="evenodd" clip-rule="evenodd" d="M11.6305 11.3854C11.6305 11.3854 7.13098 20.0655 6.583 21.6658C6.03503 23.2661 6.30263 25.1449 6.583 26.1262C6.86338 27.1074 7.16904 28.2603 10.3768 29.7384C13.5845 31.2166 15.9146 29.6893 17.3001 28.1258C18.6856 26.5623 20.6646 20.6046 20.6646 20.6046C20.6646 20.6046 20.1404 19.5972 19.5546 19.3116C18.9688 19.026 18.0125 19.3116 18.0125 19.3116C18.0125 19.3116 17.4883 18.1316 16.8083 17.7481C16.1283 17.3646 15.2402 17.7481 15.2402 17.7481C15.2402 17.7481 14.6446 16.7654 14.1624 16.556C13.6801 16.3467 12.4946 16.556 12.4946 16.556L14.1624 13.0797C14.1624 13.0797 14.2641 11.8788 13.5268 11.3854C12.7895 10.892 11.6305 11.3854 11.6305 11.3854Z" fill="url(#paint1_linear_468_39775)"/>
<path id="&#232;&#183;&#175;&#229;&#190;&#132; 54" d="M5.63431 3.85539C5.63431 3.85539 2.77989 2.78437 1.75716 4.87816C0.734425 6.97195 2.77989 8.49171 4.55014 9.42134C6.3204 10.351 9.06508 10.7152 9.06508 10.7152C9.06508 10.7152 10.6794 7.39756 11.0115 5.62648C11.3435 3.85539 10.5338 1.46843 8.41537 1.1462C6.29695 0.823959 5.63431 3.85539 5.63431 3.85539Z" fill="url(#paint2_linear_468_39775)"/>
</g>
</g>
<defs>
<linearGradient id="paint0_linear_468_39775" x1="6.26465" y1="13.7383" x2="6.26465" y2="18.5383" gradientUnits="userSpaceOnUse">
<stop stop-color="#FBE4D8"/>
<stop offset="1" stop-color="#FCAD8A"/>
</linearGradient>
<linearGradient id="paint1_linear_468_39775" x1="8.34491" y1="13.1153" x2="8.34491" y2="30.3387" gradientUnits="userSpaceOnUse">
<stop stop-color="#FFDECC"/>
<stop offset="1" stop-color="#FFBD9D"/>
</linearGradient>
<linearGradient id="paint2_linear_468_39775" x1="1.4834" y1="1.11523" x2="1.4834" y2="10.7152" gradientUnits="userSpaceOnUse">
<stop stop-color="#FF9BAB"/>
<stop offset="1" stop-color="#E53347"/>
</linearGradient>
</defs>
</svg>
