<svg width="25" height="24" viewBox="0 0 25 24" fill="none" xmlns="http://www.w3.org/2000/svg">
<g id="&#231;&#188;&#150;&#231;&#187;&#132;&#229;&#164;&#135;&#228;&#187;&#189;">
<path id="&#229;&#189;&#162;&#231;&#138;&#182;&#231;&#187;&#147;&#229;&#144;&#136;" fill-rule="evenodd" clip-rule="evenodd" d="M11.6008 22.899C11.2008 22.899 10.8008 22.4759 10.8008 22.2426V20.0021C10.1975 19.8306 9.55225 19.5897 9.1177 19.3223C7.86685 18.55 6.60344 17.3745 6.82657 17.1686L6.82655 17.1686C7.04969 16.9598 9.02338 17.0256 10.4094 17.7692C10.5393 17.839 10.6707 17.9273 10.8008 18.0287V11.888C10.8008 11.6547 11.1593 11.4653 11.6008 11.4653C12.0423 11.4653 12.4008 11.6547 12.4008 11.888V16.1876C12.7547 15.753 13.1566 15.3421 13.5952 15.0061C14.9093 13.9993 17.8629 13.6394 17.994 14.0039C18.125 14.3683 16.3418 16.8147 14.9769 17.7258C14.1472 18.2827 13.1892 18.7805 12.4008 19.0994V20.1645C12.4008 20.1647 12.4008 20.165 12.4008 20.1652V22.2426C12.4008 22.4759 12.0008 22.899 11.6008 22.899Z" fill="url(#paint0_linear_468_39766)"/>
<path id="&#232;&#183;&#175;&#229;&#190;&#132;" d="M7.77782 2.66689C6.51748 3.46689 5.7627 7.8224 5.7627 9.06689C5.7627 10.3114 6.10588 10.8804 6.29733 11.4669C6.55577 10.7512 7.21625 10.2057 7.89268 9.51204C9.03815 8.34228 12.7446 7.99739 14.4006 7.02943C13.6029 4.28632 9.03815 1.86689 7.77782 2.66689Z" fill="url(#paint1_linear_468_39766)"/>
<path id="&#232;&#183;&#175;&#229;&#190;&#132;_2" d="M7.1365 8.56102C6.50969 9.20742 6.24181 10.0914 6.00098 10.7542C6.28938 11.633 6.79482 12.4184 7.4519 13.052C8.48954 14.0506 9.90477 14.6666 11.4627 14.6666C14.6202 14.6666 17.201 12.1294 17.201 9.03158C17.201 7.31534 16.4643 5.48235 15.8073 4.18875C15.3964 3.37978 14.2236 3.3986 13.5834 4.04162C12.9187 4.70937 11.9682 5.43283 10.6995 5.87568C9.15639 6.77203 8.58561 7.06661 7.1365 8.56102Z" fill="url(#paint2_linear_468_39766)"/>
</g>
<defs>
<linearGradient id="paint0_linear_468_39766" x1="15.8425" y1="24.833" x2="19.753" y2="17.8742" gradientUnits="userSpaceOnUse">
<stop stop-color="#429A7D"/>
<stop offset="1" stop-color="#21D045"/>
</linearGradient>
<linearGradient id="paint1_linear_468_39766" x1="5.7627" y1="2.51172" x2="5.7627" y2="11.4669" gradientUnits="userSpaceOnUse">
<stop stop-color="#FF9BAB"/>
<stop offset="1" stop-color="#E53347"/>
</linearGradient>
<linearGradient id="paint2_linear_468_39766" x1="6.00098" y1="2.45557" x2="6.00098" y2="14.6665" gradientUnits="userSpaceOnUse">
<stop stop-color="#FFA8B2"/>
<stop offset="1" stop-color="#E03E4A"/>
</linearGradient>
</defs>
</svg>
