<svg width="21" height="21" viewBox="0 0 21 21" fill="none" xmlns="http://www.w3.org/2000/svg">
<g id="Group 7">
<g id="Rectangle">
<path id="Mask" fill-rule="evenodd" clip-rule="evenodd" d="M5.12094 8.8178L13.9803 0.229059C14.294 -0.0750557 14.8041 -0.0765377 15.1197 0.225749C15.1767 0.280314 15.2249 0.34278 15.2627 0.411076L15.7236 1.24395C16.3153 2.31325 16.1935 3.61875 15.4133 4.56919L13.6737 6.6884H18.2126C19.34 6.6884 20.2538 7.56902 20.2538 8.65533V9.79689C20.2538 10.2527 19.8703 10.6223 19.3973 10.6223L19.6392 10.8851C20.4896 11.8093 20.6423 13.1499 20.0202 14.2299L17.6776 18.2964C16.9673 19.5295 15.6189 20.2943 14.1554 20.2943H11.926C9.56546 20.2943 7.2854 19.4673 5.51071 17.9674C5.51071 17.9674 5.17089 17.9674 5.00098 17.9674" fill="#F6CEBB"/>
<mask id="mask0_468_39756" style="mask-type:luminance" maskUnits="userSpaceOnUse" x="5" y="0" width="16" height="21">
<path id="Mask_2" fill-rule="evenodd" clip-rule="evenodd" d="M5.12094 8.8178L13.9803 0.229059C14.294 -0.0750557 14.8041 -0.0765377 15.1197 0.225749C15.1767 0.280314 15.2249 0.34278 15.2627 0.411076L15.7236 1.24395C16.3153 2.31325 16.1935 3.61875 15.4133 4.56919L13.6737 6.6884H18.2126C19.34 6.6884 20.2538 7.56902 20.2538 8.65533V9.79689C20.2538 10.2527 19.8703 10.6223 19.3973 10.6223L19.6392 10.8851C20.4896 11.8093 20.6423 13.1499 20.0202 14.2299L17.6776 18.2964C16.9673 19.5295 15.6189 20.2943 14.1554 20.2943H11.926C9.56546 20.2943 7.2854 19.4673 5.51071 17.9674C5.51071 17.9674 5.17089 17.9674 5.00098 17.9674" fill="white"/>
</mask>
<g mask="url(#mask0_468_39756)">
<rect id="Rectangle_2" x="3.14258" y="12.2451" width="18.7326" height="15.2207" fill="#F5C5AF"/>
</g>
</g>
<g id="Rectangle_3">
<path id="Mask_3" fill-rule="evenodd" clip-rule="evenodd" d="M0 6.19434H3.02389C4.13496 6.19434 5.03566 7.09503 5.03566 8.2061V18.3886C5.03566 19.4997 4.13496 20.4004 3.02389 20.4004H0V6.19434Z" fill="#FFCD23"/>
<mask id="mask1_468_39756" style="mask-type:luminance" maskUnits="userSpaceOnUse" x="0" y="6" width="6" height="15">
<path id="Mask_4" fill-rule="evenodd" clip-rule="evenodd" d="M0 6.19434H3.02389C4.13496 6.19434 5.03566 7.09503 5.03566 8.2061V18.3886C5.03566 19.4997 4.13496 20.4004 3.02389 20.4004H0V6.19434Z" fill="white"/>
</mask>
<g mask="url(#mask1_468_39756)">
<rect id="Rectangle_4" x="3.14258" y="2.50488" width="3.02139" height="24.962" fill="white"/>
</g>
</g>
</g>
</svg>
