<svg width="16" height="16" viewBox="0 0 16 16" fill="none" xmlns="http://www.w3.org/2000/svg">
<path fill-rule="evenodd" clip-rule="evenodd" d="M2 7.99213C2 4.69213 4.7 1.99213 8 1.99213C11.3 1.99213 14 4.69213 14 7.99213C14 11.2921 11.3 13.9921 8 13.9921C4.7 13.9921 2 11.2921 2 7.99213ZM8.00002 10.9892C7.58581 10.9892 7.25002 10.6534 7.25002 10.2392L7.25002 7.9892C7.25002 7.57498 7.58581 7.2392 8.00002 7.2392C8.41424 7.2392 8.75002 7.57498 8.75002 7.9892L8.75002 10.2392C8.75002 10.6534 8.41424 10.9892 8.00002 10.9892ZM7.99998 12.4951C5.52498 12.4951 3.49998 10.4701 3.49998 7.99506C3.49998 5.52006 5.52498 3.49506 7.99998 3.49506C10.475 3.49506 12.5 5.52006 12.5 7.99506C12.5 10.4701 10.475 12.4951 7.99998 12.4951ZM8.00002 6.4892C7.58581 6.4892 7.25002 6.15341 7.25002 5.7392C7.25002 5.32498 7.58581 4.9892 8.00002 4.9892C8.41424 4.9892 8.75002 5.32498 8.75002 5.7392C8.75002 6.15341 8.41424 6.4892 8.00002 6.4892Z" fill="#CFD4E6"/>
</svg>
